<?xml version="1.0" encoding="utf-8"?>
<!-- Generator: Adobe Illustrator 16.0.0, SVG Export Plug-In . SVG Version: 6.00 Build 0)  -->
<!DOCTYPE svg PUBLIC "-//W3C//DTD SVG 1.1//EN" "http://www.w3.org/Graphics/SVG/1.1/DTD/svg11.dtd">
<svg version="1.1" id="Layer_1" xmlns="http://www.w3.org/2000/svg" xmlns:xlink="http://www.w3.org/1999/xlink" x="0px" y="0px"
	 width="274px" height="177px" viewBox="115.92 132.26 273.164 76.034"
	 enable-background="new 115.92 132.26 273.164 76.034" xml:space="preserve">
	<g transform="translate(0,12)">
		<g transform="matrix(1 0 0 1 0 100)">
	<polygon fill="#72C9F1" points="310.961,107.976 294.599,107.976 294.599,86.533 296.127,85.617 307.654,78.701 296.127,71.785
		294.599,70.869 294.599,51.601 310.961,51.601 	"/>
	<polygon fill="none" stroke="#72C9F1" stroke-width="0.6367" stroke-miterlimit="3.8637" points="310.961,107.976 294.599,107.976
		294.599,86.533 296.127,85.617 307.654,78.701 296.127,71.785 294.599,70.869 294.599,51.601 310.961,51.601 	"/>
	<path fill="#72C9F1" d="M356.867,79.77c0-2.06-0.294-3.935-0.877-5.625c-0.585-1.716-1.475-3.195-2.669-4.438
		c-1.17-1.268-2.604-2.244-4.308-2.932c-1.703-0.712-3.673-1.069-5.908-1.069c-4.271,0-7.626,1.295-10.065,3.882
		c-2.44,2.588-3.659,5.982-3.659,10.182c0,4.199,1.219,7.605,3.659,10.221c2.464,2.589,5.819,3.883,10.065,3.883
		c2.921,0,5.412-0.596,7.471-1.783c2.06-1.215,3.622-2.879,4.691-4.992C356.333,84.958,356.867,82.515,356.867,79.77z
		 M373.107,79.77c0,5.123-1.144,9.838-3.432,14.143c-2.262,4.306-5.643,7.725-10.141,10.26s-9.977,3.804-16.43,3.804
		c-6.533,0-12.061-1.32-16.584-3.962c-4.524-2.641-7.891-6.113-10.103-10.419c-2.187-4.305-3.278-8.912-3.278-13.825
		c0-4.94,1.092-9.548,3.278-13.827c2.185-4.305,5.54-7.764,10.063-10.38c4.551-2.641,10.091-3.96,16.623-3.961
		c4.879,0,9.225,0.753,13.038,2.259c3.836,1.505,6.987,3.552,9.454,6.14c2.465,2.563,4.332,5.56,5.604,8.993
		C372.471,72.4,373.106,75.993,373.107,79.77z"/>
	<path fill="none" stroke="#72C9F1" stroke-width="0.6367" stroke-miterlimit="3.8637" d="M356.867,79.77
		c0-2.06-0.294-3.935-0.877-5.625c-0.585-1.716-1.475-3.195-2.669-4.438c-1.17-1.268-2.604-2.244-4.308-2.932
		c-1.703-0.712-3.673-1.069-5.908-1.069c-4.271,0-7.626,1.295-10.065,3.882c-2.44,2.588-3.659,5.982-3.659,10.182
		c0,4.199,1.219,7.605,3.659,10.221c2.464,2.589,5.819,3.883,10.065,3.883c2.921,0,5.412-0.596,7.471-1.783
		c2.06-1.215,3.622-2.879,4.691-4.992C356.333,84.958,356.867,82.515,356.867,79.77z M373.107,79.77
		c0,5.123-1.144,9.838-3.432,14.143c-2.262,4.306-5.643,7.725-10.141,10.26s-9.977,3.804-16.43,3.804
		c-6.533,0-12.061-1.32-16.584-3.962c-4.524-2.641-7.891-6.113-10.103-10.419c-2.187-4.305-3.278-8.912-3.278-13.825
		c0-4.94,1.092-9.548,3.278-13.827c2.185-4.305,5.54-7.764,10.063-10.38c4.551-2.641,10.091-3.96,16.623-3.961
		c4.879,0,9.225,0.753,13.038,2.259c3.836,1.505,6.987,3.552,9.454,6.14c2.465,2.563,4.332,5.56,5.604,8.993
		C372.471,72.4,373.106,75.993,373.107,79.77z"/>
	<polygon fill="#72C9F1" points="376.812,71.94 378.299,72.832 388.08,78.701 378.299,84.568 376.812,85.461 	"/>
	<polygon fill="none" stroke="#72C9F1" stroke-width="1.0595" stroke-miterlimit="3.8637" points="376.787,71.94 378.273,72.832
		388.055,78.701 378.273,84.568 376.787,85.461 	"/>
	<path fill="#989898" d="M144.614,69.734c0,2.929-2.296,5.701-6.232,5.701h-8.116V64.033h8.117
		C142.318,64.033,144.614,66.804,144.614,69.734z M158.962,69.734c0-9.264-6.969-18.132-19.922-18.132h-23.12v56.374h14.346v-20.11
		h8.773C151.993,87.865,158.962,78.998,158.962,69.734z"/>
	<polygon fill="#989898" points="248.18,107.976 208.5,107.976 208.5,51.601 247.854,51.601 290.896,51.601 290.896,63.954
		276.551,63.954 276.551,107.976 262.203,107.976 262.203,63.954 248.18,63.954 222.846,63.954 222.846,73.375 244.491,73.375
		244.491,85.727 222.846,85.727 222.846,95.625 248.18,95.625 	"/>
	<circle fill="#72C9F1" cx="302.78" cy="40.441" r="8.181"/>
	<path fill="#989898" d="M194.44,67.033c-7.868-3.837-16.853-0.21-16.853-0.21V51.601h-15.601v56.374h15.271V86.457h0.024
		c-0.012-0.158-0.024-0.317-0.024-0.48c0-3.528,2.861-6.389,6.388-6.389c3.525,0,6.386,2.86,6.386,6.389
		c0,0.163-0.012,0.322-0.024,0.48h0.024v21.518h14.231c0,0,0,1.7,0-20.641C204.262,79.275,203.743,71.57,194.44,67.033z"/>
	<text transform="matrix(1 0 0 1 376.7871 106.123)" fill="#72C9F1" font-family="'ArialMT'" font-size="5.7055">TM</text>
</g>

	</g>
</svg>
