<?xml version="1.0" encoding="utf-8"?>
<!-- Generator: Adobe Illustrator 16.0.0, SVG Export Plug-In . SVG Version: 6.00 Build 0)  -->
<!DOCTYPE svg PUBLIC "-//W3C//DTD SVG 1.1//EN" "http://www.w3.org/Graphics/SVG/1.1/DTD/svg11.dtd">
<svg version="1.1" id="Layer_1" xmlns="http://www.w3.org/2000/svg" xmlns:xlink="http://www.w3.org/1999/xlink" x="0px" y="0px"
	 width="273px" height="130px" viewBox="0 0 96 45.07" enable-background="new 0 0 96 45.07" xml:space="preserve">
<g>
	<g>
		<text transform="matrix(1 0 0 1 9.765625e-04 10.3789)" fill="#FFFFFF" font-family="'ArialMT'" font-size="12.0942">adapted from</text>
		<g>
			<path fill-rule="evenodd" clip-rule="evenodd" fill="#FFFFFF" d="M15.565,24.31c0,1.588-1.244,3.091-3.381,3.091H7.781v-6.183
				h4.403C14.321,21.217,15.565,22.719,15.565,24.31z M23.35,24.31c0-5.027-3.78-9.836-10.807-9.836H0v30.58h7.781V34.146h4.762
				C19.569,34.146,23.35,29.333,23.35,24.31z"/>
			<polygon fill="#FFFFFF" points="71.752,45.054 50.225,45.054 50.225,14.474 71.574,14.474 94.925,14.474 94.925,21.174 
				87.143,21.174 87.143,45.054 79.357,45.054 79.357,21.174 71.752,21.174 58.008,21.174 58.008,26.286 69.749,26.286 
				69.749,32.986 58.008,32.986 58.008,38.355 71.752,38.355 			"/>
			<path fill="#FFFFFF" d="M42.597,22.846c-4.269-2.082-9.142-0.114-9.142-0.114v-8.258H24.99v30.58h8.285V33.383h0.013
				c-0.007-0.086-0.013-0.173-0.013-0.262c0-1.913,1.551-3.467,3.465-3.467c1.912,0,3.465,1.554,3.465,3.467
				c0,0.088-0.006,0.176-0.013,0.262h0.013v11.671h7.719c0,0,0,0.923,0-11.195C47.924,29.486,47.643,25.306,42.597,22.846z"/>
		</g>
	</g>
	<g>
		<path fill="#FFFFFF" d="M93.987,38.688c0.405,0.169,0.759,0.406,1.056,0.708c0.298,0.3,0.53,0.65,0.7,1.059
			C95.912,40.858,96,41.292,96,41.757c0,0.469-0.088,0.907-0.257,1.309c-0.17,0.403-0.402,0.752-0.7,1.048
			c-0.297,0.3-0.65,0.532-1.056,0.704c-0.405,0.168-0.842,0.252-1.311,0.252c-0.472,0-0.911-0.084-1.315-0.252
			c-0.407-0.171-0.756-0.404-1.056-0.704c-0.298-0.296-0.529-0.646-0.698-1.048c-0.171-0.402-0.257-0.84-0.257-1.309
			c0-0.465,0.086-0.899,0.257-1.303c0.169-0.408,0.4-0.759,0.698-1.059c0.3-0.302,0.648-0.539,1.056-0.708
			c0.404-0.17,0.844-0.254,1.315-0.254C93.146,38.433,93.582,38.518,93.987,38.688z M91.556,39.13
			c-0.345,0.148-0.639,0.349-0.893,0.606c-0.249,0.257-0.443,0.558-0.583,0.903c-0.141,0.344-0.209,0.718-0.209,1.117
			c0,0.4,0.068,0.771,0.209,1.116c0.14,0.348,0.334,0.646,0.583,0.903c0.254,0.254,0.548,0.458,0.893,0.609
			c0.338,0.147,0.713,0.223,1.121,0.223c0.397,0,0.771-0.075,1.112-0.223c0.34-0.151,0.636-0.354,0.889-0.609
			c0.249-0.257,0.445-0.556,0.588-0.903c0.143-0.346,0.215-0.716,0.215-1.116c0-0.399-0.072-0.772-0.215-1.117
			c-0.143-0.346-0.339-0.646-0.588-0.903c-0.253-0.257-0.549-0.458-0.889-0.606c-0.342-0.148-0.715-0.223-1.112-0.223
			C92.269,38.907,91.894,38.982,91.556,39.13z M91.469,43.677v-3.841h1.476c0.433,0,0.749,0.091,0.952,0.272
			c0.198,0.181,0.299,0.444,0.299,0.792c0,0.166-0.025,0.313-0.079,0.438c-0.05,0.125-0.12,0.231-0.205,0.316
			c-0.091,0.086-0.195,0.156-0.312,0.205c-0.118,0.049-0.24,0.091-0.372,0.112l1.145,1.707H93.82l-1.084-1.707h-0.793v1.707H91.469z
			 M92.992,41.555c0.141-0.008,0.265-0.033,0.369-0.074c0.107-0.043,0.195-0.108,0.262-0.203c0.065-0.092,0.097-0.217,0.097-0.378
			c0-0.139-0.026-0.248-0.076-0.333c-0.049-0.081-0.117-0.149-0.204-0.199c-0.086-0.053-0.183-0.086-0.289-0.103
			c-0.109-0.018-0.224-0.028-0.34-0.028h-0.867v1.333h0.624C92.711,41.571,92.853,41.563,92.992,41.555z"/>
	</g>
</g>
</svg>
